<svg width="188" height="29" viewBox="0 0 188 29" fill="none" xmlns="http://www.w3.org/2000/svg">
<path d="M2.96003 10.4969H18.4327V8.05952H2.96003V2.8019H19.1058V0.367278H0V18.5575H19.4505V16.1198H2.96003V10.4969Z" fill="white"/>
<path d="M35.9212 8.85182L27.4076 0.367278H23.3953L34.4405 11.0561V18.5575H37.4005V11.0561L48.4458 0.367278H44.4334L35.9212 8.85182Z" fill="white"/>
<path d="M56.9214 10.4969H72.3941V8.05952H56.9214V2.8019H73.0692V0.367278H53.9614V18.5575H73.4119V16.1198H56.9214V10.4969Z" fill="white"/>
<path d="M100.212 9.09002C99.6569 8.69298 98.8605 8.41489 97.7762 8.24103C96.7386 8.07428 95.3405 7.97998 93.6169 7.95812L86.3031 7.86586C84.9765 7.85086 83.916 7.80611 83.1494 7.73468C82.4166 7.66732 81.8736 7.54304 81.5389 7.36739C81.2402 7.21056 81.0544 6.99195 80.972 6.69913C80.8736 6.3547 80.8241 5.88293 80.8241 5.29423C80.8241 4.59903 80.8935 4.05302 81.0325 3.66869C81.1558 3.32808 81.396 3.08482 81.7684 2.92595C82.1842 2.75031 82.8207 2.63618 83.6629 2.58357C84.5337 2.53171 85.7104 2.50399 87.159 2.50399H92.2875C93.4758 2.50399 94.4888 2.51188 95.3009 2.52688C96.0703 2.54187 96.6839 2.63796 97.127 2.81487C97.5291 2.97577 97.81 3.27165 97.9887 3.71826C98.1813 4.20198 98.2797 4.94472 98.2797 5.92461V6.22558H101.239V5.92461C101.239 4.57233 101.091 3.48999 100.798 2.70252C100.49 1.88149 99.9716 1.26584 99.2548 0.873628C98.5667 0.496412 97.6353 0.253156 96.4854 0.150718C95.3695 0.0515843 93.9565 -4.90988e-06 92.2875 -4.90988e-06H87.0357C85.191 -4.90988e-06 83.6639 0.0762481 82.4941 0.225203C81.2997 0.379241 80.3543 0.652235 79.6891 1.03758C78.9952 1.43666 78.5084 2.00249 78.2443 2.71549C77.9911 3.39569 77.863 4.26146 77.863 5.29423C77.863 6.23549 77.9556 7.03186 78.1391 7.66733C78.3338 8.34551 78.726 8.8915 79.3058 9.29058C79.864 9.67796 80.6861 9.96392 81.7486 10.1375C82.7801 10.3063 84.1623 10.4057 85.8542 10.4276L92.6756 10.5198C94.1283 10.5417 95.2869 10.5813 96.1201 10.639C96.9213 10.6937 97.5121 10.8078 97.8776 10.9766C98.1981 11.1276 98.3987 11.349 98.4881 11.6538C98.5944 12.0142 98.648 12.5226 98.648 13.171C98.648 13.9059 98.5903 14.5014 98.4792 14.9404C98.3799 15.3275 98.1663 15.6186 97.8239 15.827C97.4556 16.0505 96.8618 16.2063 96.0604 16.2889C95.2234 16.3733 94.0668 16.4178 92.6179 16.4178H87.0001C85.7012 16.4178 84.6199 16.3931 83.7839 16.3433C82.9857 16.2988 82.364 16.1547 81.9362 15.9213C81.533 15.703 81.2559 15.3456 81.0912 14.8311C80.9133 14.2752 80.8241 13.4659 80.8241 12.4262V12.1255H77.863V12.4262C77.863 13.8283 78.0181 14.9732 78.3229 15.827C78.6396 16.7129 79.1708 17.3908 79.9027 17.8428C80.6116 18.2797 81.5678 18.5725 82.7424 18.7136C83.8863 18.8524 85.3181 18.922 87.0001 18.922H92.7412C94.5909 18.922 96.1051 18.8277 97.2441 18.6439C98.4137 18.4553 99.3262 18.1325 99.9586 17.6887C100.609 17.2319 101.055 16.6135 101.283 15.8519C101.499 15.127 101.608 14.2254 101.608 13.171C101.608 12.2028 101.521 11.3856 101.346 10.7402C101.16 10.0503 100.779 9.49723 100.212 9.09002Z" fill="white"/>
<path d="M113.06 12.0907L118.803 2.71241L124.544 12.0907H113.06ZM117.064 0.367278L105.693 18.5575H109.16L111.516 14.5263H126.088L128.445 18.5575H131.912L120.541 0.367278H117.064Z" fill="white"/>
<path d="M155.641 6.14116C155.641 6.75375 155.59 7.25501 155.492 7.63248C155.404 7.96013 155.212 8.20644 154.901 8.38717C154.56 8.58569 154.002 8.72956 153.241 8.81192C152.451 8.89835 151.35 8.94105 149.967 8.94105H139.853V2.87128H149.353C150.805 2.87128 151.979 2.89924 152.843 2.95567C153.678 3.01032 154.307 3.13258 154.714 3.31331C155.081 3.48006 155.316 3.72535 155.437 4.06596C155.572 4.45004 155.641 4.99629 155.641 5.68438V6.14116ZM156.977 1.43461C156.362 1.03757 155.459 0.756427 154.296 0.597559C153.164 0.443775 151.652 0.367278 149.808 0.367278H136.893V18.5575H139.853V11.4453H150.882L151.218 11.4433L155.226 18.5575H158.276L154.14 11.2099C155.264 11.0282 156.145 10.7453 156.764 10.366C157.484 9.9212 157.977 9.33046 158.233 8.60552C158.477 7.9154 158.601 7.08623 158.601 6.14116V5.68438C158.601 4.66661 158.493 3.8077 158.279 3.12953C158.055 2.41475 157.617 1.8436 156.977 1.43461Z" fill="white"/>
<path d="M173.798 9.28064L187.618 0.367278H182.972L170.788 8.05952H168.048V0.367278H165.089V18.5575H168.048V10.4969H170.799L183.363 18.5575H188L173.798 9.28064Z" fill="white"/>
<path d="M60.0193 26.6697H57.6055L58.8129 24.5569L60.0193 26.6697ZM59.213 23.9163H58.4128L55.9721 28.0967L55.8867 28.2456H56.7199L57.2361 27.2973H60.3896L60.9069 28.2456H61.7391L59.243 23.9641L59.213 23.9163Z" fill="white"/>
<path d="M65.9123 27.6003H63.4607V24.5599H65.9123C66.1785 24.5599 66.3879 24.5668 66.5526 24.5818L66.9479 24.671L67.1545 24.8776L67.2636 25.3016C67.2854 25.493 67.2964 25.7383 67.2964 26.0263V26.1336C67.2964 26.4861 67.2796 26.766 67.2448 26.9696L67.063 27.3847L66.6708 27.5555C66.4822 27.5853 66.228 27.6003 65.9123 27.6003ZM67.5854 24.2966C67.4255 24.1448 67.2031 24.0406 66.925 23.9908C66.6619 23.9412 66.3203 23.9163 65.9123 23.9163H62.7479V28.2456H65.9123C66.3193 28.2456 66.6609 28.2187 66.927 28.164C67.2051 28.1094 67.4265 28.0003 67.5854 27.8463C67.7443 27.6895 67.8574 27.4691 67.9209 27.1831C67.9807 26.9129 68.0104 26.5576 68.0104 26.1336V26.0263C68.0104 25.5876 67.9807 25.2272 67.9209 24.9521C67.8574 24.669 67.7443 24.4476 67.5854 24.2966Z" fill="white"/>
<path d="M71.1331 24.5419H73.1994V28.2456H73.9132V24.5419H75.9785V23.9163H71.1331V24.5419Z" fill="white"/>
<path d="M77.8432 26.3519H81.2341V25.7236H77.8432V24.5419H81.3841V23.9163H77.1295V28.2456H81.4585V27.618H77.8432V26.3519Z" fill="white"/>
<path d="M87.1409 24.1052C86.9731 23.9938 86.7537 23.9194 86.4866 23.8845C86.2276 23.8469 85.9088 23.8301 85.5395 23.8301H84.4541C84.1216 23.8301 83.8463 23.8449 83.614 23.8746C83.3679 23.9094 83.1692 23.9661 83.0085 24.0533L82.6092 24.4506C82.5139 24.6163 82.4493 24.8278 82.4127 25.0909C82.3748 25.3443 82.356 25.657 82.356 26.0263V26.1336C82.356 26.5804 82.3858 26.9498 82.4475 27.2327C82.509 27.5286 82.6221 27.7591 82.78 27.918C82.9399 28.0796 83.1623 28.1889 83.4394 28.2456C83.7075 28.3031 84.039 28.3328 84.4541 28.3328H85.5395C85.9078 28.3328 86.2265 28.315 86.4856 28.2802C86.7578 28.2456 86.9711 28.176 87.1401 28.0697L87.5173 27.5733C87.5908 27.3697 87.6284 27.0919 87.6284 26.7492V26.6519H86.9146V26.7492C86.9146 26.9973 86.8928 27.188 86.8501 27.3222L86.6615 27.5703L86.2522 27.6696C86.0567 27.6826 85.8163 27.6874 85.5395 27.6874H84.4541C84.2019 27.6874 83.9874 27.6775 83.8156 27.6628L83.4233 27.5555L83.2139 27.3321L83.1038 26.8832C83.083 26.6867 83.0721 26.4434 83.0721 26.1336V26.0263C83.0721 25.7086 83.083 25.4554 83.1038 25.2569L83.2129 24.8049L83.4206 24.5917L83.8145 24.4974C83.9874 24.4824 84.2019 24.4755 84.4541 24.4755H85.5395C85.8234 24.4755 86.0626 24.4824 86.2512 24.4974L86.6584 24.6016L86.8501 24.8626C86.8928 24.9938 86.9146 25.1903 86.9146 25.4386V25.5378H87.6284V25.4386C87.6284 25.096 87.5908 24.8179 87.5173 24.6095L87.1409 24.1052Z" fill="white"/>
<path d="M93.1928 25.7236H89.6034V23.9163H88.8894V28.2456H89.6034V26.3519H93.1928V28.2456H93.9078V23.9163H93.1928V25.7236Z" fill="white"/>
<path d="M98.2021 24.5599H100.252C100.581 24.5599 100.831 24.5668 101.014 24.5866L101.408 24.6761L101.554 24.8527L101.598 25.2299V25.3392L101.554 25.6987L101.406 25.8774L101.012 25.9798C100.824 25.9966 100.568 26.0095 100.252 26.0095H98.2021V24.5599ZM101.947 24.1924C101.806 24.0881 101.609 24.0187 101.343 23.976C101.091 23.9361 100.768 23.9163 100.352 23.9163H97.4881V28.2456H98.2021V26.6519H100.337C100.746 26.6519 101.078 26.63 101.329 26.5853C101.591 26.5408 101.797 26.4633 101.938 26.3591L102.24 25.932C102.288 25.7683 102.312 25.5746 102.312 25.3392V25.2299C102.312 24.9839 102.289 24.7851 102.241 24.6163L101.947 24.1924Z" fill="white"/>
<path d="M105.748 27.5685L103.857 23.9689L103.829 23.9163H103.012L105.345 28.2456H106.151L108.399 24.0604L108.477 23.9163H107.669L105.748 27.5685Z" fill="white"/>
<path d="M109.236 24.5419H111.303V28.2456H112.017V24.5419H114.083V23.9163H109.236V24.5419Z" fill="white"/>
<path d="M115.061 28.2456H115.776V27.5306H115.061V28.2456Z" fill="white"/>
<path d="M117.731 23.9163H117.016V28.2456H121.001V27.618H117.731V23.9163Z" fill="white"/>
<path d="M120.842 24.5419H122.909V28.2456H123.623V24.5419H125.688V23.9163H120.842V24.5419Z" fill="white"/>
<path d="M130.015 27.6003H127.563V24.5599H130.015C130.281 24.5599 130.491 24.5668 130.656 24.5818L131.05 24.671L131.259 24.8776L131.368 25.3016C131.39 25.493 131.4 25.7383 131.4 26.0263V26.1336C131.4 26.4861 131.381 26.766 131.346 26.9696L131.166 27.3847L130.774 27.5555C130.585 27.5853 130.33 27.6003 130.015 27.6003ZM132.023 24.9521C131.961 24.669 131.847 24.4476 131.687 24.2966C131.528 24.1448 131.305 24.0406 131.028 23.9908C130.764 23.9412 130.425 23.9163 130.015 23.9163H126.849V28.2456H130.015C130.423 28.2456 130.764 28.2187 131.03 28.164C131.307 28.1094 131.528 28.0003 131.689 27.8463C131.847 27.6895 131.961 27.4691 132.023 27.1831C132.082 26.9129 132.113 26.5576 132.113 26.1336V26.0263C132.113 25.5876 132.082 25.2272 132.023 24.9521Z" fill="white"/>
</svg>
